<svg preserveAspectRatio="none" width="100%" height="100%" overflow="visible" style="display: block;" viewBox="0 0 104.984 79.8755" fill="none" xmlns="http://www.w3.org/2000/svg">
<g id="Group 162">
<g id="Ellipse 57" filter="url(#filter1_d_975_2826)">
<path d="M44.4143 22.9709C54.1144 18.4753 63.5641 16.1123 70.9445 15.8513C74.64 15.7207 77.6963 16.1219 79.9724 16.951C82.2364 17.7758 83.5572 18.9519 84.1812 20.2982C84.805 21.6445 84.8488 23.4127 84.0147 25.6731C83.1762 27.9457 81.5063 30.5364 79.0181 33.2716C74.0486 38.7344 66.1376 44.4173 56.4375 48.913C46.7373 53.4086 37.2877 55.7717 29.9073 56.0326C26.212 56.1632 23.1559 55.7628 20.8798 54.9337C18.616 54.1091 17.2951 52.9328 16.671 51.5866C16.0471 50.2402 16.0035 48.4722 16.8375 46.2117C17.676 43.9391 19.3454 41.3477 21.8337 38.6123C26.8032 33.1495 34.7143 27.4665 44.4143 22.9709Z" stroke="var(--stroke-0, black)" stroke-width="4.74995" shape-rendering="crispEdges"/>
</g>
<path id="Ellipse 55" d="M44.3807 22.4351C56.0692 17.018 67.5467 14.3485 76.5891 14.3178C85.881 14.2863 91.5408 16.9843 93.3934 20.9817C95.246 24.9791 93.6465 31.0416 87.6164 38.1112C81.7483 44.991 72.2927 52.0232 60.6044 57.4403C48.9158 62.8575 37.4376 65.5273 28.3951 65.558C19.1033 65.5895 13.4435 62.8915 11.5908 58.8941C9.73813 54.8967 11.3378 48.8342 17.3678 41.7646C23.236 34.8848 32.6922 27.8523 44.3807 22.4351Z" stroke="var(--stroke-0, black)" stroke-width="5.24015"/>
<path id="Ellipse 56" d="M44.5519 22.4288C55.2381 17.4762 65.6939 14.9776 73.8959 14.8522C78.0004 14.7894 81.4143 15.3231 83.9788 16.338C86.526 17.3459 88.089 18.7616 88.8591 20.4234C89.6291 22.085 89.6987 24.1921 88.8215 26.7869C87.9382 29.3997 86.1388 32.3496 83.438 35.4409C78.0408 41.6182 69.376 47.9812 58.6898 52.9339C48.0037 57.8865 37.5479 60.385 29.3459 60.5105C25.2413 60.5732 21.8266 60.04 19.262 59.0251C16.7153 58.0172 15.1523 56.6021 14.3821 54.9406C13.612 53.2789 13.5421 51.1711 14.4193 48.5762C15.3026 45.9634 17.1028 43.0132 19.8038 39.9218C25.201 33.7446 33.8658 27.3814 44.5519 22.4288Z" stroke="var(--stroke-0, black)" stroke-width="5.24015"/>
</g>
<defs>
<filter id="filter1_d_975_2826" x="10.8318" y="10.4528" width="79.1885" height="50.9786" filterUnits="userSpaceOnUse" color-interpolation-filters="sRGB">
<feFlood flood-opacity="0" result="BackgroundImageFix"/>
<feColorMatrix in="SourceAlpha" type="matrix" values="0 0 0 0 0 0 0 0 0 0 0 0 0 0 0 0 0 0 127 0" result="hardAlpha"/>
<feOffset/>
<feGaussianBlur stdDeviation="1.49978"/>
<feComposite in2="hardAlpha" operator="out"/>
<feColorMatrix type="matrix" values="0 0 0 0 0 0 0 0 0 0 0 0 0 0 0 0 0 0 0.25 0"/>
<feBlend mode="normal" in2="BackgroundImageFix" result="effect1_dropShadow_975_2826"/>
<feBlend mode="normal" in="SourceGraphic" in2="effect1_dropShadow_975_2826" result="shape"/>
</filter>
</defs>
</svg>
