<svg preserveAspectRatio="none" width="100%" height="100%" overflow="visible" style="display: block;" viewBox="0 0 88.7803 67.5469" fill="none" xmlns="http://www.w3.org/2000/svg">
<g id="Group 162">
<g id="Ellipse 57" filter="url(#filter1_d_975_2581)">
<path d="M37.5589 19.4255C45.7618 15.6238 53.7527 13.6258 59.9939 13.4052C63.119 13.2948 65.7031 13.634 67.6278 14.3351C69.5424 15.0326 70.6593 16.0268 71.1869 17.1653C71.7145 18.3039 71.7513 19.7989 71.046 21.7104C70.3369 23.6322 68.9253 25.8233 66.8213 28.1363C62.6188 32.7559 55.9291 37.5619 47.7263 41.3636C39.5234 45.1654 31.5317 47.1637 25.2904 47.3843C22.1655 47.4948 19.5812 47.1555 17.6565 46.4544C15.7421 45.757 14.6251 44.7626 14.0974 43.6242C13.5697 42.4856 13.533 40.9908 14.2383 39.0791C14.9474 37.1573 16.3589 34.9663 18.4631 32.6532C22.6656 28.0335 29.3558 23.2273 37.5589 19.4255Z" stroke="var(--stroke-0, black)" stroke-width="4.01681" shape-rendering="crispEdges"/>
</g>
<path id="Ellipse 55" d="M37.53 18.9725C47.4142 14.3915 57.1202 12.1337 64.767 12.1076C72.6249 12.081 77.4118 14.3626 78.9785 17.743C80.5451 21.1235 79.192 26.2509 74.0926 32.2294C69.1302 38.0472 61.1337 43.9938 51.2495 48.5748C41.3652 53.1557 31.6592 55.4137 24.0125 55.4396C16.1548 55.4663 11.3686 53.1842 9.8018 49.8038C8.2351 46.4234 9.58755 41.2964 14.6868 35.3179C19.6492 29.5 27.6457 23.5536 37.53 18.9725Z" stroke="var(--stroke-0, black)" stroke-width="4.43135"/>
<path id="Ellipse 56" d="M37.6757 18.9673C46.7123 14.7792 55.5539 12.6662 62.4899 12.5601C65.9609 12.507 68.848 12.9584 71.0168 13.8166C73.1706 14.6689 74.4924 15.8655 75.1437 17.2706C75.795 18.6759 75.854 20.4585 75.1121 22.653C74.3651 24.8625 72.8434 27.3573 70.5594 29.9714C65.9953 35.1952 58.668 40.5759 49.6315 44.764C40.5947 48.9522 31.7524 51.0655 24.8164 51.1716C21.3453 51.2247 18.4582 50.7732 16.2895 49.915C14.1355 49.0627 12.8134 47.8655 12.1621 46.4602C11.511 45.055 11.4524 43.273 12.1942 41.0787C12.9411 38.8691 14.4628 36.3745 16.7469 33.7602C21.311 28.5364 28.6389 23.1555 37.6757 18.9673Z" stroke="var(--stroke-0, black)" stroke-width="4.43135"/>
</g>
<defs>
<filter id="filter1_d_975_2581" x="9.15907" y="8.83938" width="66.966" height="43.1102" filterUnits="userSpaceOnUse" color-interpolation-filters="sRGB">
<feFlood flood-opacity="0" result="BackgroundImageFix"/>
<feColorMatrix in="SourceAlpha" type="matrix" values="0 0 0 0 0 0 0 0 0 0 0 0 0 0 0 0 0 0 127 0" result="hardAlpha"/>
<feOffset/>
<feGaussianBlur stdDeviation="1.26829"/>
<feComposite in2="hardAlpha" operator="out"/>
<feColorMatrix type="matrix" values="0 0 0 0 0 0 0 0 0 0 0 0 0 0 0 0 0 0 0.25 0"/>
<feBlend mode="normal" in2="BackgroundImageFix" result="effect1_dropShadow_975_2581"/>
<feBlend mode="normal" in="SourceGraphic" in2="effect1_dropShadow_975_2581" result="shape"/>
</filter>
</defs>
</svg>
