<svg preserveAspectRatio="none" width="100%" height="100%" overflow="visible" style="display: block;" viewBox="0 0 125 95.104" fill="none" xmlns="http://www.w3.org/2000/svg">
<g id="Group 162">
<g id="Ellipse 57" filter="url(#filter1_d_975_2565)">
<path d="M52.8819 27.3506C64.4315 21.9978 75.6829 19.1843 84.4704 18.8736C88.8705 18.7181 92.5093 19.1949 95.2193 20.1821C97.9147 21.164 99.4875 22.5641 100.231 24.167C100.974 25.77 101.026 27.8757 100.032 30.5673C99.034 33.2732 97.0458 36.3579 94.0831 39.6147C88.1661 46.1191 78.7468 52.8857 67.1973 58.2384C55.6477 63.5912 44.3963 66.4048 35.6087 66.7154C31.2087 66.8709 27.5699 66.3941 24.8599 65.4069C22.1643 64.4249 20.592 63.0238 19.8491 61.4207C19.1063 59.8178 19.0538 57.713 20.0468 55.0217C21.0452 52.3158 23.0333 49.2311 25.996 45.9743C31.913 39.4699 41.3323 32.7034 52.8819 27.3506Z" stroke="var(--stroke-0, black)" stroke-width="5.65555" shape-rendering="crispEdges"/>
</g>
<path id="Ellipse 55" d="M52.8413 26.7122C66.7583 20.2622 80.4242 17.0834 91.1906 17.0468C102.254 17.0093 108.994 20.2224 111.2 24.982C113.405 29.7416 111.501 36.9602 104.321 45.3776C97.3339 53.5691 86.0752 61.9419 72.1583 68.3919C58.2415 74.8417 44.5761 78.0202 33.8098 78.0568C22.7464 78.0944 16.0063 74.8823 13.8003 70.123C11.5944 65.3634 13.4996 58.1437 20.6795 49.7261C27.6665 41.5347 38.9246 33.1621 52.8413 26.7122Z" stroke="var(--stroke-0, black)" stroke-width="6.23921"/>
<path id="Ellipse 56" d="M53.0452 26.7049C65.7688 20.808 78.2183 17.8331 87.9841 17.6837C92.8711 17.609 96.9359 18.2446 99.9894 19.4529C103.022 20.653 104.884 22.338 105.801 24.3165C106.718 26.2951 106.8 28.8047 105.756 31.8945C104.704 35.0054 102.562 38.5177 99.3457 42.1984C92.9195 49.5535 82.6026 57.1299 69.8791 63.0268C57.1555 68.9237 44.706 71.8986 34.9402 72.0479C30.0531 72.1226 25.9884 71.4871 22.9349 70.2788C19.9021 69.0786 18.0404 67.3937 17.1235 65.4151C16.2065 63.4366 16.1241 60.9269 17.1687 57.8371C18.2204 54.7262 20.3628 51.2139 23.5786 47.5332C30.0048 40.1782 40.3217 32.6018 53.0452 26.7049Z" stroke="var(--stroke-0, black)" stroke-width="6.23921"/>
</g>
<defs>
<filter id="filter1_d_975_2565" x="12.8966" y="12.4455" width="94.2861" height="60.6979" filterUnits="userSpaceOnUse" color-interpolation-filters="sRGB">
<feFlood flood-opacity="0" result="BackgroundImageFix"/>
<feColorMatrix in="SourceAlpha" type="matrix" values="0 0 0 0 0 0 0 0 0 0 0 0 0 0 0 0 0 0 127 0" result="hardAlpha"/>
<feOffset/>
<feGaussianBlur stdDeviation="1.78571"/>
<feComposite in2="hardAlpha" operator="out"/>
<feColorMatrix type="matrix" values="0 0 0 0 0 0 0 0 0 0 0 0 0 0 0 0 0 0 0.25 0"/>
<feBlend mode="normal" in2="BackgroundImageFix" result="effect1_dropShadow_975_2565"/>
<feBlend mode="normal" in="SourceGraphic" in2="effect1_dropShadow_975_2565" result="shape"/>
</filter>
</defs>
</svg>
