<svg preserveAspectRatio="none" width="100%" height="100%" overflow="visible" style="display: block;" viewBox="0 0 74.5643 56.7309" fill="none" xmlns="http://www.w3.org/2000/svg">
<g id="Group 162">
<g id="Ellipse 57" filter="url(#filter1_d_975_2971)">
<path d="M31.5439 16.3147C38.4332 13.1218 45.1453 11.4437 50.3872 11.2583C53.0118 11.1656 55.1825 11.45 56.7991 12.0388C58.4071 12.6246 59.3456 13.4599 59.7888 14.4161C60.232 15.3724 60.2627 16.6284 59.6703 18.2339C59.0747 19.848 57.8886 21.6882 56.1214 23.6309C52.5918 27.5108 46.9729 31.5476 40.0836 34.7406C33.1943 37.9334 26.4829 39.6112 21.2411 39.7966C18.6165 39.8893 16.4458 39.6049 14.8292 39.0161C13.2212 38.4303 12.2827 37.595 11.8395 36.6388C11.3963 35.6825 11.3656 34.4265 11.958 32.821C12.5536 31.2069 13.7397 29.3667 15.5069 27.424C19.0364 23.5442 24.6547 19.5076 31.5439 16.3147Z" stroke="var(--stroke-0, black)" stroke-width="3.37362" shape-rendering="crispEdges"/>
</g>
<path id="Ellipse 55" d="M31.5208 15.935C39.8225 12.0875 47.9743 10.1908 54.3966 10.169C60.9963 10.1466 65.0165 12.0632 66.3324 14.9023C67.6479 17.7415 66.5114 22.0472 62.2288 27.0682C58.0609 31.9545 51.3451 36.9495 43.0434 40.797C34.7419 44.6444 26.5903 46.5399 20.1681 46.5618C13.5687 46.5842 9.54876 44.6683 8.23274 41.8293C6.91689 38.9901 8.053 34.6838 12.3359 29.6625C16.5037 24.7763 23.2194 19.7824 31.5208 15.935Z" stroke="var(--stroke-0, black)" stroke-width="3.72178"/>
<path id="Ellipse 56" d="M31.6425 15.9302C39.2322 12.4126 46.6581 10.6377 52.4835 10.5485C55.3986 10.504 57.8234 10.8831 59.6448 11.6038C61.4539 12.3197 62.5648 13.3245 63.1119 14.5047C63.6589 15.685 63.7075 17.1821 63.0844 19.0252C62.457 20.8809 61.179 22.976 59.2607 25.1716C55.4274 29.5589 49.2736 34.0787 41.6839 37.5962C34.0941 41.1138 26.6679 42.8879 20.8425 42.977C17.9272 43.0215 15.5026 42.6425 13.6811 41.9217C11.872 41.2058 10.762 40.2006 10.215 39.0204C9.66805 37.8402 9.61853 36.3434 10.2416 34.5003C10.869 32.6446 12.147 30.5495 14.0653 28.3539C17.8986 23.9666 24.0528 19.4477 31.6425 15.9302Z" stroke="var(--stroke-0, black)" stroke-width="3.72178"/>
</g>
<defs>
<filter id="filter1_d_975_2971" x="7.69261" y="7.42391" width="56.243" height="36.2072" filterUnits="userSpaceOnUse" color-interpolation-filters="sRGB">
<feFlood flood-opacity="0" result="BackgroundImageFix"/>
<feColorMatrix in="SourceAlpha" type="matrix" values="0 0 0 0 0 0 0 0 0 0 0 0 0 0 0 0 0 0 127 0" result="hardAlpha"/>
<feOffset/>
<feGaussianBlur stdDeviation="1.0652"/>
<feComposite in2="hardAlpha" operator="out"/>
<feColorMatrix type="matrix" values="0 0 0 0 0 0 0 0 0 0 0 0 0 0 0 0 0 0 0.25 0"/>
<feBlend mode="normal" in2="BackgroundImageFix" result="effect1_dropShadow_975_2971"/>
<feBlend mode="normal" in="SourceGraphic" in2="effect1_dropShadow_975_2971" result="shape"/>
</filter>
</defs>
</svg>
