<svg preserveAspectRatio="none" width="100%" height="100%" overflow="visible" style="display: block;" viewBox="0 0 63.3277 10.9184" fill="none" xmlns="http://www.w3.org/2000/svg">
<g id="icons-right">
<g id="battery">
<path id="outline" opacity="0.35" d="M43.6733 0.443359H57.9517C59.5622 0.443537 60.8676 1.74884 60.8677 3.35938V7.55859C60.8677 9.16918 59.5622 10.4754 57.9517 10.4756H43.6733C42.0627 10.4755 40.7573 9.16925 40.7573 7.55859V3.35938C40.7574 1.74877 42.0627 0.443426 43.6733 0.443359Z" stroke="var(--stroke-0, black)" stroke-width="0.88614"/>
<path id="end" opacity="0.4" d="M62.1507 4.19937V7.74393C62.8638 7.44373 63.3275 6.74537 63.3275 5.97165C63.3275 5.19793 62.8638 4.49958 62.1507 4.19937" fill="var(--fill-0, black)"/>
<path id="charged" d="M41.9937 3.3595C41.9937 2.4318 42.7458 1.67975 43.6735 1.67975H57.9513C58.879 1.67975 59.6311 2.4318 59.6311 3.3595V7.55887C59.6311 8.48657 58.879 9.23862 57.9513 9.23862H43.6735C42.7458 9.23862 41.9937 8.48657 41.9937 7.55887V3.3595Z" fill="var(--fill-0, black)"/>
</g>
<path id="wi-fi" d="M26.1332 7.63035C27.3256 6.6011 29.0716 6.60117 30.264 7.63035C30.324 7.68573 30.3591 7.7646 30.3607 7.84715C30.3622 7.92953 30.3304 8.00915 30.2728 8.06688L28.4056 9.98973C28.3509 10.0463 28.2765 10.0786 28.1986 10.0786C28.1208 10.0786 28.0463 10.0462 27.9916 9.98973L26.1234 8.06688C26.0658 8.00901 26.0348 7.92866 26.0365 7.84617C26.0383 7.76378 26.0732 7.68559 26.1332 7.63035ZM23.6088 5.25926C26.178 2.81977 30.1567 2.81977 32.7259 5.25926C32.7837 5.31643 32.8169 5.39488 32.8177 5.47703C32.8185 5.5593 32.7867 5.6384 32.7299 5.69676L31.6507 6.81004C31.5396 6.92366 31.3596 6.9264 31.2455 6.8159C30.4019 6.03615 29.3044 5.60402 28.1664 5.60399C27.0289 5.60447 25.9314 6.03657 25.0882 6.8159C24.9742 6.92616 24.7951 6.92344 24.684 6.81004L23.6039 5.69676C23.5471 5.63849 23.5162 5.55922 23.517 5.47703C23.5177 5.39471 23.5508 5.31646 23.6088 5.25926ZM21.0873 2.8911C25.0279 -0.963525 31.2444 -0.963672 35.1849 2.8911C35.2419 2.9483 35.2742 3.02633 35.2748 3.10789C35.2752 3.18953 35.2442 3.2687 35.1879 3.32664L34.1068 4.43992C33.9955 4.55407 33.8146 4.55528 33.7015 4.44285C32.2002 2.98587 30.2077 2.17341 28.1361 2.17332C26.0644 2.17334 24.0722 2.98591 22.5707 4.44285C22.4578 4.55541 22.2767 4.55403 22.1654 4.43992L21.0843 3.32664C21.028 3.26865 20.9959 3.18956 20.9965 3.10789C20.997 3.0263 21.0302 2.94827 21.0873 2.8911Z" fill="var(--fill-0, black)"/>
<g id="signal">
<path d="M8.39874 2.51962C8.39874 2.05577 8.77477 1.67975 9.23862 1.67975H10.0785C10.5423 1.67975 10.9184 2.05577 10.9184 2.51962V9.23862C10.9184 9.70247 10.5423 10.0785 10.0785 10.0785H9.23862C8.77477 10.0785 8.39874 9.70247 8.39874 9.23862V2.51962Z" fill="var(--fill-0, black)"/>
<path d="M12.5981 0.839874C12.5981 0.376024 12.9741 0 13.438 0H14.2779C14.7417 0 15.1177 0.376025 15.1177 0.839874V9.23862C15.1177 9.70247 14.7417 10.0785 14.2779 10.0785H13.438C12.9741 10.0785 12.5981 9.70247 12.5981 9.23862V0.839874Z" fill="var(--fill-0, black)"/>
<path d="M4.19937 5.45918C4.19937 4.99533 4.5754 4.61931 5.03925 4.61931H5.87912C6.34297 4.61931 6.719 4.99533 6.719 5.45918V9.23862C6.719 9.70247 6.34297 10.0785 5.87912 10.0785H5.03925C4.5754 10.0785 4.19937 9.70247 4.19937 9.23862V5.45918Z" fill="var(--fill-0, black)"/>
<path d="M0 7.55887C0 7.09502 0.376025 6.719 0.839874 6.719H1.67975C2.1436 6.719 2.51962 7.09502 2.51962 7.55887V9.23862C2.51962 9.70247 2.1436 10.0785 1.67975 10.0785H0.839874C0.376025 10.0785 0 9.70247 0 9.23862V7.55887Z" fill="var(--fill-0, black)"/>
</g>
</g>
</svg>
